<svg width="145" height="104" viewBox="0 0 145 104" fill="none" xmlns="http://www.w3.org/2000/svg">
<path d="M106.367 83V26.2031H117.07V83H106.367ZM110.273 60.4609V50.1484H139.375V60.4609H110.273ZM110.273 36.5156V26.2031H143.672V36.5156H110.273Z" fill="#FFC529"/>
<rect x="63" y="52" width="63" height="10" rx="5" transform="rotate(180 63 52)" fill="#FFC529"/>
<path d="M71.9141 46.1484V35.8359H91.6797C93.3464 35.8359 94.6745 35.224 95.6641 34C96.6797 32.776 97.2005 31.1615 97.2266 29.1562C97.2266 27.151 96.7188 25.5365 95.7031 24.3125C94.7135 23.0885 93.3724 22.4766 91.6797 22.4766H71.9141V12.1641H92.5391C95.6901 12.1641 98.4375 12.8672 100.781 14.2734C103.151 15.6797 104.987 17.6589 106.289 20.2109C107.591 22.763 108.242 25.7448 108.242 29.1562C108.242 32.5677 107.578 35.5495 106.25 38.1016C104.948 40.6536 103.125 42.6328 100.781 44.0391C98.4375 45.4453 95.6901 46.1484 92.5391 46.1484H71.9141ZM67.6562 69V12.1641H78.3594V69H67.6562ZM97.6562 69L83.8672 44.3906L95.3125 42.5938L110.625 69H97.6562Z" fill="#FF9900"/>
<path d="M23.9922 81.8933C24.8136 81.1396 25.3019 80.0906 25.3498 78.9769C25.3978 77.8632 25.0014 76.776 24.2478 75.9546L18.6437 69.8494L52.7965 69.8494C53.9113 69.8494 54.9805 69.4065 55.7688 68.6182C56.5571 67.8299 57 66.7607 57 65.6458C57 64.531 56.5571 63.4618 55.7688 62.6735C54.9805 61.8852 53.9113 61.4423 52.7965 61.4423L9.07981 61.4423C8.26388 61.4424 7.46561 61.6799 6.78239 62.126C6.09916 62.572 5.56051 63.2072 5.23214 63.9542C4.90378 64.7011 4.79989 65.5274 4.93316 66.3324C5.06642 67.1374 5.43108 67.8862 5.98265 68.4874L18.0535 81.6394C18.8074 82.4605 19.8566 82.9486 20.9703 82.9962C22.084 83.0438 23.171 82.6471 23.9922 81.8933Z" fill="#FF9900"/>
<path d="M56.6247 30.5174C56.9578 29.7775 57.0726 28.9565 56.9554 28.1525C56.8382 27.3486 56.4939 26.5957 55.9638 25.9838L44.2218 12.4456C43.8592 12.0274 43.4185 11.6853 42.9249 11.4389C42.4312 11.1924 41.8943 11.0465 41.3448 11.0094C40.7952 10.9723 40.2438 11.0448 39.7221 11.2227C39.2003 11.4006 38.7184 11.6805 38.3038 12.0462C37.8892 12.412 37.5501 12.8566 37.3059 13.3546C37.0616 13.8526 36.917 14.3943 36.8802 14.9487C36.8434 15.5031 36.9153 16.0594 37.0916 16.5858C37.2679 17.1122 37.5453 17.5984 37.9079 18.0166L43.5642 24.5386L9.19358 24.5386C8.08138 24.5386 7.01472 24.9844 6.22827 25.7778C5.44182 26.5712 5 27.6473 5 28.7693C5 29.8914 5.44182 30.9675 6.22827 31.7609C7.01472 32.5543 8.08138 33 9.19358 33L52.8069 33C53.6124 32.9998 54.4008 32.7656 55.0778 32.3253C55.7549 31.8851 56.2919 31.2574 56.6247 30.5174Z" fill="#FF9900"/>
</svg>
